<svg xmlns="http://www.w3.org/2000/svg" height="399" viewBox="0 0 1680 399" width="1680"><defs><style>path{fill:none;}</style></defs><g  fill-rule="evenodd" transform="translate(-60 .335938)"><g transform="translate(0 10.664062)"><path d="m0 .25c492.79 0 378.93 156.23 899.5 156.23" stroke="#00efc6"/><path d="m0 15.39c492.12 0 379.16 144.78 899.5 144.78" stroke="#0de2ca"/><path d="m0 30.53c491.44 0 379.38 133.33 899.5 133.33" stroke="#1bd5cf"/><path d="m0 45.67c490.77 0 379.61 121.89 899.5 121.89" stroke="#28c8d3"/><path d="m0 60.81c490.09 0 379.83 110.44 899.5 110.44" stroke="#36bcd8"/><path d="m0 76c489.42 0 380.06 99 899.5 99" stroke="#43afdc"/><path d="m0 91.1c488.74 0 380.28 87.53 899.5 87.53" stroke="#50a2e0"/><path d="m0 106.24c488.07 0 380.51 76.08 899.5 76.08" stroke="#5e95e5"/><path d="m0 121.38c487.39 0 380.73 64.63 899.5 64.63" stroke="#6b88e9"/><path d="m0 136.52c486.71 0 381 53.18 899.5 53.18" stroke="#787bed"/><path d="m0 151.66c486 0 381.19 41.73 899.5 41.73" stroke="#866ff2"/><path d="m0 166.8c485.36 0 381.41 30.28 899.5 30.28" stroke="#9362f6"/><path d="m0 181.94c484.69 0 381.64 18.84 899.5 18.84" stroke="#a155fb"/><path d="m0 197.09c484 0 381.86 7.38 899.5 7.38" stroke="#ae48ff"/><path d="m0 209.54c483.46 0 382.05-2 899.5-2" stroke="#a14fff"/><path d="m0 222c482.9 0 382.23-11.48 899.5-11.48" stroke="#9356ff"/><path d="m0 234.44c482.34 0 382.42-20.92 899.5-20.92" stroke="#865dff"/><path d="m0 246.89c481.79 0 382.6-30.35 899.5-30.35" stroke="#7864ff"/><path d="m0 259.35c481.23 0 382.79-39.79 899.5-39.79" stroke="#6b6bff"/><path d="m0 271.8c480.68 0 383-49.22 899.5-49.22" stroke="#5e72ff"/><path d="m0 284.25c480.12 0 383.16-58.65 899.5-58.65" stroke="#5079ff"/><path d="m0 296.7c479.56 0 383.34-68.08 899.5-68.08" stroke="#4380ff"/><path d="m0 309.15c479 0 383.53-77.51 899.5-77.51" stroke="#3687ff"/><path d="m0 321.61c478.45 0 383.72-87 899.5-87" stroke="#288eff"/><path d="m0 334.06c477.89 0 383.9-96.38 899.5-96.38" stroke="#1b95ff"/><path d="m0 346.51c477.34 0 384.09-105.81 899.5-105.81" stroke="#0d9cff"/><path d="m0 359c476.78 0 384.27-115.24 899.5-115.24" stroke="#00a3ff"/></g><g transform="matrix(-1 0 0 1 1799 10.664062)"><path d="m0 .25c492.79 0 378.93 156.23 899.5 156.23" stroke="#00efc6"/><path d="m0 15.39c492.12 0 379.16 144.78 899.5 144.78" stroke="#0de2ca"/><path d="m0 30.53c491.44 0 379.38 133.33 899.5 133.33" stroke="#1bd5cf"/><path d="m0 45.67c490.77 0 379.61 121.89 899.5 121.89" stroke="#28c8d3"/><path d="m0 60.81c490.09 0 379.83 110.44 899.5 110.44" stroke="#36bcd8"/><path d="m0 76c489.42 0 380.06 99 899.5 99" stroke="#43afdc"/><path d="m0 91.1c488.74 0 380.28 87.53 899.5 87.53" stroke="#50a2e0"/><path d="m0 106.24c488.07 0 380.51 76.08 899.5 76.08" stroke="#5e95e5"/><path d="m0 121.38c487.39 0 380.73 64.63 899.5 64.63" stroke="#6b88e9"/><path d="m0 136.52c486.71 0 381 53.18 899.5 53.18" stroke="#787bed"/><path d="m0 151.66c486 0 381.19 41.73 899.5 41.73" stroke="#866ff2"/><path d="m0 166.8c485.36 0 381.41 30.28 899.5 30.28" stroke="#9362f6"/><path d="m0 181.94c484.69 0 381.64 18.84 899.5 18.84" stroke="#a155fb"/><path d="m0 197.09c484 0 381.86 7.38 899.5 7.38" stroke="#ae48ff"/><path d="m0 209.54c483.46 0 382.05-2 899.5-2" stroke="#a14fff"/><path d="m0 222c482.9 0 382.23-11.48 899.5-11.48" stroke="#9356ff"/><path d="m0 234.44c482.34 0 382.42-20.92 899.5-20.92" stroke="#865dff"/><path d="m0 246.89c481.79 0 382.6-30.35 899.5-30.35" stroke="#7864ff"/><path d="m0 259.35c481.23 0 382.79-39.79 899.5-39.79" stroke="#6b6bff"/><path d="m0 271.8c480.68 0 383-49.22 899.5-49.22" stroke="#5e72ff"/><path d="m0 284.25c480.12 0 383.16-58.65 899.5-58.65" stroke="#5079ff"/><path d="m0 296.7c479.56 0 383.34-68.08 899.5-68.08" stroke="#4380ff"/><path d="m0 309.15c479 0 383.53-77.51 899.5-77.51" stroke="#3687ff"/><path d="m0 321.61c478.45 0 383.72-87 899.5-87" stroke="#288eff"/><path d="m0 334.06c477.89 0 383.9-96.38 899.5-96.38" stroke="#1b95ff"/><path d="m0 346.51c477.34 0 384.09-105.81 899.5-105.81" stroke="#0d9cff"/><path d="m0 359c476.78 0 384.27-115.24 899.5-115.24" stroke="#00a3ff"/></g></g></svg>
